<svg xmlns="http://www.w3.org/2000/svg" width="524px" height="280px" version="1.1"><defs><linearGradient id="1" x1="0%" y1="0%" x2="0%" y2="100%"><stop offset="0%" style="stop-color:#66B2FF"/><stop offset="100%" style="stop-color:#99CCFF"/></linearGradient></defs><rect x="22" y="164" width="130" height="50" rx="7.5" ry="7.5" shape-rendering="crispEdges" fill="#ffcccc" stroke="#000000" stroke-width="2"/><g text-anchor="middle" font-size="12px" font-family="Helvetica" fill="#000000"><text x="87" y="193">TwitterService</text></g><path d="M 32 63.5 C 8 63.5 2 83.5 21.2 87.5 C 2 96.3 23.6 115.5 39.2 107.5 C 50 123.5 86 123.5 98 107.5 C 122 107.5 122 91.5 107 83.5 C 122 67.5 98 51.5 77 59.5 C 62 47.5 38 47.5 32 63.5 Z" fill="#ffffff" stroke="#000000" stroke-width="2" stroke-miterlimit="10"/><g text-anchor="middle" font-size="12px" font-family="Helvetica" fill="#000000"><text x="62" y="87.5">Twitter</text></g><path d="M 372 16.5 C 372 -2.17 502 -2.17 502 16.5 L 502 58.5 C 502 77.17 372 77.17 372 58.5 Z" fill="#ffffff" stroke="#000000" stroke-width="2" stroke-miterlimit="10"/><path d="M 372 16.5 C 372 30.5 502 30.5 502 16.5" fill="none" stroke="#000000" stroke-width="2" stroke-miterlimit="10"/><g text-anchor="middle" font-size="12px" font-family="Helvetica" fill="#000000"><text x="437" y="41.5">Database</text></g><path d="M 80.76 162.93 L 75.43 157.2 L 79.28 157.89 L 82.15 155.22 Z" fill="#000000" stroke="#000000" stroke-miterlimit="10"/><path d="M 68 119.5 L 79.28 157.89" fill="none" stroke="#000000" stroke-miterlimit="10"/><path d="M 150.89 163.35 L 154.57 156.45 L 155.17 160.31 L 158.62 162.15 Z" fill="#000000" stroke="#000000" stroke-miterlimit="10"/><path d="M 207 123.5 L 155.17 160.31" fill="none" stroke="#000000" stroke-miterlimit="10"/><rect x="342" y="108" width="130" height="50" rx="7.5" ry="7.5" shape-rendering="crispEdges" fill="#99ff99" stroke="#000000" stroke-width="2"/><g text-anchor="middle" font-size="12px" font-family="Helvetica" fill="#000000"><text x="407" y="137">URLScraper</text></g><rect x="207" y="103.5" width="90" height="40" shape-rendering="crispEdges" fill="#ffffff" stroke="#000000" stroke-width="2"/><g text-anchor="middle" font-size="12px" font-family="Helvetica" fill="#000000"><text x="252" y="127.5">Terms Topic</text></g><path d="M 232 71.5 C 232 52.83 272 52.83 272 71.5 L 272 113.5 C 272 132.17 232 132.17 232 113.5 Z" fill="#ffffff" stroke="#000000" stroke-miterlimit="10" transform="rotate(90,252,92.5)"/><path d="M 232 71.5 C 232 85.5 272 85.5 272 71.5" fill="none" stroke="#000000" stroke-miterlimit="10" transform="rotate(90,252,92.5)"/><rect x="207" y="209.5" width="90" height="40" shape-rendering="crispEdges" fill="#ffffff" stroke="#000000" stroke-width="2"/><g text-anchor="middle" font-size="12px" font-family="Helvetica" fill="#000000"><text x="252" y="233.5">URLs Queue</text></g><path d="M 232 177.5 C 232 158.83 272 158.83 272 177.5 L 272 219.5 C 272 238.17 232 238.17 232 219.5 Z" fill="#ffffcc" stroke="#000000" stroke-miterlimit="10" transform="rotate(90,252,198.5)"/><path d="M 232 177.5 C 232 191.5 272 191.5 272 177.5" fill="none" stroke="#000000" stroke-miterlimit="10" transform="rotate(90,252,198.5)"/><path d="M 205.94 229.14 L 198.19 230.22 L 200.97 227.46 L 200.43 223.59 Z" fill="#000000" stroke="#000000" stroke-miterlimit="10"/><path d="M 152 210.94 L 200.97 227.46" fill="none" stroke="#000000" stroke-miterlimit="10"/><path d="M 366.06 158.8 L 363.68 166.25 L 362.39 162.56 L 358.67 161.36 Z" fill="#000000" stroke="#000000" stroke-miterlimit="10"/><path d="M 297 229.5 L 362.39 162.56" fill="none" stroke="#000000" stroke-miterlimit="10"/><rect x="192" y="3.5" width="120" height="40" rx="6" ry="6" shape-rendering="crispEdges" fill="url(#1)" stroke="#000000" stroke-width="2"/><g text-anchor="middle" font-size="12px" font-family="Helvetica" fill="#000000"><text x="252" y="27.5">Web UI</text></g><path d="M 252 71.38 L 248.5 64.38 L 252 66.13 L 255.5 64.38 Z" fill="#000000" stroke="#000000" stroke-miterlimit="10"/><path d="M 252 43.5 L 252 66.13" shape-rendering="crispEdges" fill="none" stroke="#000000" stroke-miterlimit="10"/><path d="M 313.09 23.75 L 320.7 21.94 L 318.2 24.95 L 319.11 28.75 Z" fill="#000000" stroke="#000000" stroke-miterlimit="10"/><path d="M 370.91 37.25 L 363.3 39.06 L 365.8 36.05 L 364.89 32.25 Z" fill="#000000" stroke="#000000" stroke-miterlimit="10"/><path d="M 318.2 24.95 L 365.8 36.05" fill="none" stroke="#000000" stroke-miterlimit="10"/><path d="M 432 218.5 C 408 218.5 402 238.5 421.2 242.5 C 402 251.3 423.6 270.5 439.2 262.5 C 450 278.5 486 278.5 498 262.5 C 522 262.5 522 246.5 507 238.5 C 522 222.5 498 206.5 477 214.5 C 462 202.5 438 202.5 432 218.5 Z" fill="#ffffff" stroke="#000000" stroke-width="2" stroke-miterlimit="10"/><g text-anchor="middle" font-size="12px" font-family="Helvetica" fill="#000000"><text x="462" y="242.5">Internet</text></g><path d="M 441.7 199.74 L 435.37 195.15 L 439.28 195.09 L 441.58 191.92 Z" fill="#000000" stroke="#000000" stroke-miterlimit="10"/><path d="M 420 158 L 439.28 195.09" fill="none" stroke="#000000" stroke-miterlimit="10"/></svg>